<svg xmlns="http://www.w3.org/2000/svg" xmlns:xlink="http://www.w3.org/1999/xlink" viewBox="0 0 100 100" version="1.1" xml:space="preserve" style="" x="0px" y="0px" fill-rule="evenodd" clip-rule="evenodd" stroke-linejoin="round" stroke-miterlimit="1.41421"><g><path d="M8.944,50.564l-4.798,4.798l-0.071,0.067c-0.067,0.056 -0.083,0.071 -0.154,0.121c-0.162,0.111 -0.343,0.193 -0.533,0.239c-0.19,0.047 -0.389,0.059 -0.583,0.036c-0.558,-0.068 -1.052,-0.431 -1.283,-0.944c-0.067,-0.149 -0.111,-0.308 -0.131,-0.47c-0.019,-0.162 -0.014,-0.327 0.015,-0.487c0.041,-0.225 0.13,-0.441 0.26,-0.629c0.056,-0.081 0.12,-0.153 0.188,-0.225l7.563,-7.563c0.072,-0.067 0.144,-0.131 0.225,-0.188c0.161,-0.111 0.343,-0.193 0.533,-0.239c0.096,-0.024 0.192,-0.036 0.29,-0.045c0.098,-0.003 0.098,-0.002 0.196,0c0.098,0.009 0.194,0.021 0.29,0.045c0.19,0.046 0.371,0.128 0.532,0.239c0.082,0.057 0.154,0.121 0.226,0.188l7.562,7.563c0.068,0.072 0.132,0.144 0.188,0.225c0.13,0.188 0.219,0.404 0.261,0.629c0.029,0.16 0.034,0.325 0.014,0.487c-0.072,0.592 -0.476,1.109 -1.034,1.32c-0.152,0.058 -0.314,0.093 -0.477,0.103c-0.195,0.011 -0.393,-0.013 -0.58,-0.071c-0.187,-0.058 -0.363,-0.151 -0.517,-0.271c-0.068,-0.054 -0.083,-0.071 -0.146,-0.13l-4.795,-4.795c0.004,1.247 0.068,2.492 0.194,3.733c0.301,2.962 0.954,5.887 1.943,8.695c1.446,4.1 3.609,7.941 6.356,11.31c3.211,3.938 7.212,7.221 11.706,9.594c3.559,1.879 7.418,3.18 11.388,3.839c3.976,0.659 8.057,0.681 12.039,0.061c3.501,-0.545 6.922,-1.584 10.135,-3.078c2.728,-1.269 5.303,-2.865 7.654,-4.743c1.098,-0.878 2.142,-1.818 3.139,-2.809l0.153,-0.134c0.057,-0.038 0.111,-0.079 0.169,-0.114c0.176,-0.103 0.371,-0.172 0.572,-0.204c0.474,-0.073 0.966,0.072 1.324,0.39c0.102,0.09 0.192,0.192 0.268,0.305c0.076,0.113 0.138,0.235 0.183,0.363c0.069,0.192 0.1,0.396 0.093,0.6c-0.009,0.272 -0.088,0.54 -0.227,0.773c-0.093,0.156 -0.13,0.185 -0.25,0.32c-0.18,0.179 -0.36,0.356 -0.542,0.533c-1.099,1.052 -2.249,2.049 -3.455,2.977c-2.588,1.99 -5.413,3.67 -8.398,4.992c-3.519,1.559 -7.256,2.62 -11.069,3.141c-4.338,0.593 -8.772,0.489 -13.077,-0.309c-4.291,-0.795 -8.447,-2.284 -12.268,-4.391c-4.828,-2.662 -9.104,-6.301 -12.511,-10.635c-2.92,-3.715 -5.194,-7.932 -6.683,-12.418c-1.021,-3.078 -1.672,-6.276 -1.938,-9.508c-0.091,-1.094 -0.136,-2.19 -0.139,-3.286l0,0ZM87.809,50.228c-0.006,-1.222 -0.07,-2.443 -0.193,-3.659c-0.301,-2.962 -0.954,-5.887 -1.944,-8.695c-1.445,-4.1 -3.608,-7.941 -6.356,-11.31c-3.211,-3.938 -7.212,-7.221 -11.706,-9.594c-3.559,-1.879 -7.417,-3.18 -11.387,-3.839c-3.976,-0.659 -8.057,-0.681 -12.039,-0.061c-3.501,0.545 -6.923,1.584 -10.135,3.078c-2.728,1.269 -5.304,2.865 -7.654,4.743c-1.099,0.877 -2.143,1.818 -3.14,2.809l-0.153,0.134c-0.056,0.038 -0.11,0.079 -0.169,0.114c-0.175,0.103 -0.37,0.172 -0.572,0.204c-0.201,0.031 -0.408,0.024 -0.607,-0.021c-0.132,-0.031 -0.26,-0.077 -0.381,-0.139c-0.427,-0.219 -0.74,-0.625 -0.843,-1.093c-0.029,-0.133 -0.041,-0.269 -0.037,-0.405c0.01,-0.272 0.088,-0.54 0.228,-0.773c0.092,-0.156 0.13,-0.185 0.249,-0.32c0.18,-0.179 0.361,-0.356 0.543,-0.533c0.55,-0.527 1.112,-1.042 1.69,-1.539c1.211,-1.044 2.483,-2.017 3.808,-2.912c4.017,-2.714 8.514,-4.707 13.223,-5.86c2.039,-0.499 4.117,-0.842 6.21,-1.024c1.012,-0.088 2.027,-0.135 3.043,-0.15c0.259,-0.003 0.517,-0.004 0.775,-0.003c1.572,0.015 3.142,0.109 4.703,0.298c3.119,0.377 6.193,1.114 9.143,2.195c4.121,1.51 7.991,3.689 11.424,6.421c3.602,2.866 6.719,6.336 9.181,10.226c2.093,3.308 3.71,6.915 4.781,10.681c0.82,2.887 1.32,5.865 1.491,8.861c0.044,0.772 0.066,1.544 0.066,2.316l4.871,-4.871l0.071,-0.067c0.076,-0.063 0.152,-0.123 0.237,-0.174c0.167,-0.101 0.353,-0.172 0.546,-0.207c0.085,-0.016 0.107,-0.016 0.194,-0.024c0.098,-0.003 0.098,-0.002 0.196,0c0.086,0.008 0.108,0.008 0.194,0.024c0.161,0.029 0.317,0.083 0.461,0.159c0.528,0.277 0.868,0.839 0.868,1.435c0,0.163 -0.025,0.326 -0.074,0.482c-0.058,0.187 -0.151,0.363 -0.271,0.518c-0.054,0.068 -0.071,0.083 -0.13,0.146l-7.563,7.563c-0.144,0.135 -0.299,0.25 -0.481,0.332c-0.45,0.202 -0.981,0.186 -1.418,-0.043c-0.146,-0.077 -0.273,-0.176 -0.393,-0.289l-7.563,-7.563c-0.059,-0.063 -0.076,-0.078 -0.129,-0.146c-0.121,-0.155 -0.214,-0.331 -0.272,-0.518c-0.058,-0.187 -0.082,-0.384 -0.07,-0.58c0.036,-0.595 0.408,-1.135 0.952,-1.38c0.149,-0.067 0.308,-0.111 0.47,-0.131c0.162,-0.019 0.327,-0.014 0.487,0.015c0.225,0.041 0.441,0.13 0.629,0.26c0.081,0.057 0.153,0.121 0.225,0.188l4.721,4.721Z" style="" fill="#000"></path><g><path d="M34.147,37.475l0,-7.028c0.006,-0.178 0.029,-0.351 0.086,-0.521c0.161,-0.473 0.541,-0.853 1.014,-1.013c0.17,-0.058 0.342,-0.081 0.521,-0.086c5.974,0 11.951,-0.192 17.921,0.003c0.178,0.018 0.349,0.051 0.515,0.12c0.427,0.177 0.765,0.538 0.914,0.976c0.058,0.17 0.08,0.343 0.086,0.521l0,7.011c0.219,0.007 0.437,0.014 0.656,0.022c0.102,0.011 0.128,0.011 0.229,0.033c0.113,0.024 0.223,0.061 0.328,0.109c0.425,0.194 0.751,0.57 0.882,1.018c0.044,0.15 0.06,0.301 0.066,0.456l0,4.914c1.144,-0.015 2.288,-0.035 3.433,-0.059c0.229,-0.009 0.456,-0.034 0.68,-0.082c0.528,-0.113 1.031,-0.34 1.464,-0.663c0.226,-0.168 0.43,-0.362 0.615,-0.575c0.478,-0.567 0.929,-1.156 1.398,-1.73c0.275,-0.326 0.576,-0.628 0.908,-0.897c0.747,-0.606 1.629,-1.043 2.564,-1.27c0.474,-0.115 0.957,-0.173 1.445,-0.183c0.198,-0.002 0.397,-0.002 0.596,0c0.281,0.005 0.56,0.024 0.839,0.063c0.622,0.087 1.23,0.263 1.802,0.522c0.873,0.394 1.656,0.979 2.282,1.703c0.525,0.605 0.938,1.306 1.214,2.058c0.267,0.729 0.397,1.498 0.402,2.273l0,17.689c-0.003,0.057 -0.003,0.113 -0.009,0.169c-0.012,0.113 -0.035,0.224 -0.07,0.332c-0.159,0.489 -0.551,0.881 -1.041,1.04c-0.107,0.035 -0.218,0.059 -0.331,0.071c-0.056,0.006 -0.113,0.006 -0.169,0.009l-50.779,0c-0.057,-0.003 -0.113,-0.003 -0.169,-0.009c-0.113,-0.012 -0.224,-0.036 -0.332,-0.071c-0.489,-0.159 -0.881,-0.551 -1.04,-1.04c-0.035,-0.108 -0.059,-0.219 -0.071,-0.332c-0.006,-0.056 -0.006,-0.112 -0.009,-0.169l0,-17.286c0.003,-0.057 0.003,-0.113 0.009,-0.17c0.012,-0.112 0.036,-0.223 0.071,-0.331c0.159,-0.489 0.551,-0.882 1.04,-1.041c0.108,-0.035 0.219,-0.058 0.332,-0.07c0.056,-0.006 0.112,-0.006 0.169,-0.009c2.459,0 4.919,0.011 7.379,0.025l0,-4.881c0.003,-0.102 0.001,-0.128 0.016,-0.23c0.017,-0.115 0.045,-0.228 0.086,-0.336c0.177,-0.474 0.576,-0.846 1.062,-0.989c0.15,-0.044 0.3,-0.06 0.456,-0.065c0.18,0 0.36,0 0.54,-0.001l0,0ZM69.969,41.791c-0.262,0.002 -0.522,0.031 -0.777,0.093c-0.469,0.114 -0.912,0.333 -1.288,0.638c-0.166,0.135 -0.317,0.286 -0.455,0.45c-0.458,0.56 -0.906,1.129 -1.364,1.689c-0.359,0.426 -0.761,0.812 -1.208,1.145c-0.832,0.62 -1.8,1.05 -2.817,1.252c-0.45,0.09 -0.905,0.132 -1.363,0.135l-34.468,0l0,14.045l47.537,0c0,-5.398 0.169,-10.799 -0.003,-16.195c-0.003,-0.086 -0.01,-0.173 -0.019,-0.259c-0.045,-0.373 -0.148,-0.736 -0.311,-1.075c-0.392,-0.813 -1.11,-1.451 -1.965,-1.74c-0.266,-0.09 -0.543,-0.146 -0.824,-0.168c-0.224,-0.017 -0.45,-0.01 -0.675,-0.01l0,0ZM53.583,40.717l-17.815,0M35.228,40.717l0,3.235l18.896,0l0,-3.235c-6.299,0 -12.598,0 -18.896,0ZM51.963,37.385l0,-5.317l-14.574,0l0,5.389c4.858,-0.043 9.717,-0.141 14.574,-0.072Z" style="" fill="#000"></path><path d="M67.422,48.816c0.229,0.008 0.456,0.025 0.682,0.06c0.571,0.087 1.126,0.267 1.64,0.53c1.043,0.535 1.898,1.411 2.408,2.467c0.231,0.481 0.391,0.995 0.471,1.522c0.084,0.543 0.084,1.099 0,1.641c-0.08,0.528 -0.24,1.042 -0.471,1.523c-0.283,0.585 -0.671,1.118 -1.142,1.567c-0.471,0.449 -1.023,0.813 -1.623,1.066c-0.664,0.281 -1.383,0.426 -2.103,0.426c-0.721,0 -1.44,-0.145 -2.103,-0.426c-0.6,-0.253 -1.153,-0.617 -1.624,-1.066c-0.471,-0.449 -0.859,-0.982 -1.142,-1.567c-0.231,-0.481 -0.391,-0.995 -0.471,-1.523c-0.083,-0.542 -0.083,-1.098 0,-1.641c0.08,-0.527 0.24,-1.041 0.471,-1.522c0.51,-1.056 1.365,-1.932 2.409,-2.467c0.513,-0.263 1.069,-0.443 1.639,-0.53c0.226,-0.035 0.453,-0.052 0.682,-0.06c0.139,-0.002 0.139,-0.002 0.277,0l0,0ZM67.227,52.056c-0.323,0.012 -0.637,0.087 -0.925,0.235c-0.562,0.288 -0.982,0.821 -1.124,1.436c-0.058,0.25 -0.07,0.511 -0.038,0.766c0.027,0.21 0.086,0.417 0.173,0.61c0.108,0.238 0.259,0.456 0.443,0.64c0.185,0.185 0.402,0.336 0.64,0.443c0.261,0.118 0.545,0.183 0.831,0.19c0.289,0.007 0.579,-0.043 0.848,-0.149c0.243,-0.096 0.467,-0.236 0.66,-0.412c0.193,-0.175 0.355,-0.385 0.474,-0.617c0.096,-0.188 0.164,-0.39 0.201,-0.598c0.046,-0.253 0.046,-0.515 0,-0.768c-0.111,-0.623 -0.505,-1.176 -1.053,-1.491c-0.279,-0.161 -0.586,-0.251 -0.906,-0.279c-0.075,-0.005 -0.149,-0.007 -0.224,-0.006l0,0Z" style="" fill="#000" fill-rule="nonzero"></path><circle cx="58.654" cy="50.989" r="2.687" style="" fill="#000"></circle></g></g></svg>